<svg xmlns="http://www.w3.org/2000/svg" fill="none" viewBox="0 0 180 30" height="30" width="180">
<path fill="#231F20" d="M25.63 0V29.47H19.49V17.09H6.14001V29.47H0V0H6.14001V11.71H19.49V0H25.63Z"></path>
<path fill="#231F20" d="M37.9096 18.48V29.47H31.8096V0H43.9596C50.1496 0 54.2796 3.30999 54.2796 9.35999C54.2796 14.06 51.6896 17.04 47.5596 18.05L55.3396 29.47H48.4296L41.1296 18.48H37.9096ZM37.9096 13.4401H43.5696C46.6396 13.4401 48.2296 11.81 48.2296 9.35999C48.2296 6.90999 46.6496 5.22998 43.5696 5.22998H37.9096V13.4401Z"></path>
<path fill="#28C077" d="M90.1798 21.12C90.1798 26.54 86.4398 29.47 80.2898 29.47H68.0498V0H79.3298C85.4698 0 89.2698 2.74002 89.2698 8.02002C89.2698 11.19 87.5398 13.49 85.3798 14.26C88.1598 15.17 90.1798 17.91 90.1798 21.12ZM78.9498 12.1C81.8798 12.1 83.4099 10.95 83.4099 8.59998C83.4099 6.24998 81.8698 5.19006 78.9498 5.19006H73.9598V12.1H78.9498ZM73.9598 24.29H79.7698C82.6498 24.29 84.1898 22.85 84.1898 20.59C84.1898 18.33 82.6498 16.89 79.7698 16.89H73.9598V24.28V24.29Z"></path>
<path fill="#28C077" d="M100.209 18.48V29.47H94.1094V0H106.259C112.449 0 116.579 3.30999 116.579 9.35999C116.579 14.06 113.989 17.04 109.859 18.05L117.639 29.47H110.729L103.429 18.48H100.209ZM100.209 13.4401H105.869C108.939 13.4401 110.529 11.81 110.529 9.35999C110.529 6.90999 108.949 5.22998 105.869 5.22998H100.209V13.4401Z"></path>
<path fill="#28C077" d="M140.68 0V5.38H126.71V11.8101H139.38V17.04H126.71V24.05H140.68V29.47H120.66V0H140.68Z"></path>
<path fill="#28C077" d="M163.67 0L168.76 19.83L173.61 0H179.66L171.98 29.47H166.36L161.18 10.03L156 29.47H150.38L142.7 0H148.89L153.69 19.83L158.88 0H163.68H163.67Z"></path>
</svg>
