<svg width="32" height="36" viewBox="0 0 32 36" fill="none" xmlns="http://www.w3.org/2000/svg">
<path d="M15.9647 28.0162C23.1282 28.0162 28.9353 21.9684 28.9353 14.5081C28.9353 7.0478 23.1282 1 15.9647 1C8.80128 1 2.99414 7.0478 2.99414 14.5081C2.99414 21.9684 8.80128 28.0162 15.9647 28.0162Z" stroke="#3B7385" stroke-width="2" stroke-linecap="round" stroke-linejoin="round"/>
<path d="M5.41176 22.5945L1 30.442L6.2059 30.148L8.5706 34.9815L12.4706 28.108C9.52353 27.3177 7.15882 25.0939 5.41176 22.5945Z" stroke="#3B7385" stroke-width="2" stroke-linecap="round" stroke-linejoin="round"/>
<path d="M26.5881 22.5945C24.8587 25.1123 22.4764 27.2993 19.5293 28.108L23.4293 34.9999L25.794 30.1664L30.9999 30.4604L26.5881 22.5945Z" stroke="#3B7385" stroke-width="2" stroke-linecap="round" stroke-linejoin="round"/>
</svg>
