<svg width="34" height="44" viewBox="0 0 34 44" fill="none" xmlns="http://www.w3.org/2000/svg">
<path d="M16.4864 27.8455C23.8996 27.8455 29.9091 21.836 29.9091 14.4228C29.9091 7.00959 23.8996 1 16.4864 1C9.07318 1 3.0636 7.00959 3.0636 14.4228C3.0636 21.836 9.07318 27.8455 16.4864 27.8455Z" stroke="#3B7385" stroke-width="2" stroke-linecap="round" stroke-linejoin="round"/>
<path d="M5.56556 22.4583L1 30.2562L6.38739 29.964L8.83452 34.767L12.8705 27.9369C9.82067 27.1517 7.37353 24.9419 5.56556 22.4583Z" stroke="#3B7385" stroke-width="2" stroke-linecap="round" stroke-linejoin="round"/>
<path d="M27.4803 22.4585C25.6906 24.9604 23.2252 27.1336 20.1754 27.9372L24.2114 34.7855L26.6585 29.9825L32.0459 30.2747L27.4803 22.4585Z" stroke="#3B7385" stroke-width="2" stroke-linecap="round" stroke-linejoin="round"/>
</svg>
