<svg width="34" height="44" viewBox="0 0 34 44" fill="none" xmlns="http://www.w3.org/2000/svg">
<path d="M29.4404 7.21143C31.6419 9.86898 31.6419 13.9575 29.4404 16.6151C26.2954 20.4048 21.6879 22.8265 16.5458 22.8265C11.4037 22.8265 6.81189 20.4206 3.65114 16.6151C1.44962 13.9575 1.44962 9.86898 3.65114 7.21143C6.79617 3.42167 11.4037 1 16.5458 1C21.6879 1 26.2797 3.40594 29.4404 7.21143Z" stroke="#3B7385" stroke-width="2" stroke-linecap="round" stroke-linejoin="round"/>
<path d="M16.5457 16.7563C19.2206 16.7563 21.389 14.5878 21.389 11.9129C21.389 9.23802 19.2206 7.06958 16.5457 7.06958C13.8708 7.06958 11.7024 9.23802 11.7024 11.9129C11.7024 14.5878 13.8708 16.7563 16.5457 16.7563Z" stroke="#3B7385" stroke-width="2" stroke-linecap="round" stroke-linejoin="round"/>
</svg>
