<svg width="30" height="24" viewBox="0 0 30 24" fill="none" xmlns="http://www.w3.org/2000/svg">
<path d="M27.4108 7.2608C29.5297 9.93948 29.5297 14.0605 27.4108 16.7392C24.3838 20.5591 19.9492 23 15 23C10.0508 23 5.63135 20.5749 2.58919 16.7392C0.470271 14.0605 0.470271 9.93948 2.58919 7.2608C5.61621 3.44092 10.0508 1 15 1C19.9492 1 24.3687 3.42507 27.4108 7.2608Z" stroke="#3B7385" stroke-width="2" stroke-linecap="round" stroke-linejoin="round"/>
<path d="M14.9995 16.8817C17.574 16.8817 19.6611 14.6961 19.6611 11.9999C19.6611 9.30372 17.574 7.11804 14.9995 7.11804C12.4249 7.11804 10.3379 9.30372 10.3379 11.9999C10.3379 14.6961 12.4249 16.8817 14.9995 16.8817Z" stroke="#3B7385" stroke-width="2" stroke-linecap="round" stroke-linejoin="round"/>
</svg>
