<svg width="30" height="42" viewBox="0 0 30 42" fill="none" xmlns="http://www.w3.org/2000/svg">
<path d="M28.9997 14.9086C29.0169 12.443 28.365 10.0177 27.1115 7.88467C25.858 5.75159 24.0487 3.98844 21.8714 2.77825C19.6941 1.56806 17.2282 0.954954 14.7296 1.00258C12.231 1.0502 9.79095 1.75682 7.66264 3.04908C5.53433 4.34133 3.79538 6.17212 2.62634 8.35137C1.45729 10.5306 0.900756 12.9789 1.01452 15.442C1.12827 17.9051 1.90818 20.2933 3.27326 22.3586C4.63834 24.4239 6.53884 26.0911 8.77745 27.187V31.7914C8.77745 32.1985 8.94133 32.5888 9.23306 32.8767C9.52478 33.1645 9.92044 33.3262 10.333 33.3262H19.6663C20.0789 33.3262 20.4746 33.1645 20.7663 32.8767C21.058 32.5888 21.2219 32.1985 21.2219 31.7914V27.187C23.5474 26.0566 25.5072 24.3086 26.8812 22.1396C28.2552 19.9705 28.9888 17.4664 28.9997 14.9086Z" stroke="#3B7385" stroke-width="2" stroke-linecap="round" stroke-linejoin="round"/>
<path d="M8.77734 41.0001H21.2218" stroke="#3B7385" stroke-width="2" stroke-linecap="round" stroke-linejoin="round"/>
</svg>
