<svg width="34" height="44" viewBox="0 0 34 44" fill="none" xmlns="http://www.w3.org/2000/svg">
<path d="M30.8055 14.9989C30.8226 12.5173 30.1752 10.0763 28.9304 7.92937C27.6856 5.78244 25.8888 4.00784 23.7266 2.7898C21.5644 1.57175 19.1156 0.954662 16.6344 1.00259C14.1531 1.05053 11.73 1.76173 9.61642 3.06238C7.50287 4.36302 5.77599 6.2057 4.61505 8.39909C3.45412 10.5925 2.90144 13.0567 3.01441 15.5358C3.12738 18.0149 3.90188 20.4186 5.25749 22.4973C6.6131 24.576 8.50042 26.254 10.7235 27.357V31.9913C10.7235 32.401 10.8863 32.7939 11.176 33.0836C11.4657 33.3733 11.8586 33.5361 12.2683 33.5361H21.5369C21.9466 33.5361 22.3395 33.3733 22.6292 33.0836C22.9189 32.7939 23.0816 32.401 23.0816 31.9913V27.357C25.391 26.2192 27.3373 24.4599 28.7017 22.2768C30.0662 20.0937 30.7947 17.5733 30.8055 14.9989Z" stroke="#3B7385" stroke-width="2" stroke-linecap="round" stroke-linejoin="round"/>
<path d="M10.7235 41.2598H23.0816" stroke="#3B7385" stroke-width="2" stroke-linecap="round" stroke-linejoin="round"/>
</svg>
