<svg width="24" height="34" viewBox="0 0 24 34" fill="none" xmlns="http://www.w3.org/2000/svg">
<path d="M23 12.0769C23 18.2062 12 33 12 33C12 33 1 18.2062 1 12.0769C1 9.13914 2.15893 6.32168 4.22183 4.24436C6.28473 2.16703 9.08262 1 12 1C14.9174 1 17.7153 2.16703 19.7782 4.24436C21.8411 6.32168 23 9.13914 23 12.0769Z" stroke="#3B7385" stroke-width="2" stroke-linecap="round" stroke-linejoin="round"/>
<path d="M12.0007 15.769C14.0257 15.769 15.6673 14.1159 15.6673 12.0767C15.6673 10.0375 14.0257 8.3844 12.0007 8.3844C9.97561 8.3844 8.33398 10.0375 8.33398 12.0767C8.33398 14.1159 9.97561 15.769 12.0007 15.769Z" stroke="#3B7385" stroke-width="2" stroke-linecap="round" stroke-linejoin="round"/>
</svg>
