<svg width="36" height="46" viewBox="0 0 36 46" fill="none" xmlns="http://www.w3.org/2000/svg">
<path d="M30.8 18.0002H5.2C3.43269 18.0002 2 19.4329 2 21.2002V40.4002C2 42.1676 3.43269 43.6002 5.2 43.6002H30.8C32.5673 43.6002 34 42.1676 34 40.4002V21.2002C34 19.4329 32.5673 18.0002 30.8 18.0002Z" stroke="#3B7385" stroke-width="4" stroke-linecap="round" stroke-linejoin="round"/>
<path d="M29.2008 18V13.2C29.2008 10.2296 28.0208 7.38081 25.9204 5.2804C23.82 3.18 20.9712 2 18.0008 2C15.0304 2 12.1816 3.18 10.0812 5.2804C7.98078 7.38081 6.80078 10.2296 6.80078 13.2V18" stroke="#3B7385" stroke-width="4" stroke-linecap="round" stroke-linejoin="round"/>
<path d="M17.9789 32.4001C18.8626 32.4001 19.5789 31.6837 19.5789 30.8001C19.5789 29.9164 18.8626 29.2001 17.9789 29.2001C17.0953 29.2001 16.3789 29.9164 16.3789 30.8001C16.3789 31.6837 17.0953 32.4001 17.9789 32.4001Z" fill="white" stroke="#3B7385" stroke-width="3" stroke-linecap="round" stroke-linejoin="round"/>
</svg>
