<svg width="248" height="63" viewBox="0 0 248 63" fill="none" xmlns="http://www.w3.org/2000/svg">
<path d="M3.98291 26.3024C3.98291 16.5518 11.8874 8.64734 21.638 8.64734V8.64734C31.3887 8.64734 39.2931 16.5518 39.2931 26.3024V26.3024C39.2931 36.0531 31.3887 43.9576 21.638 43.9576H3.98291V26.3024Z" fill="#3B7385"/>
<path d="M58.6299 36.3104C58.6299 26.5597 50.7254 18.6553 40.9748 18.6553V18.6553C31.2241 18.6553 23.3197 26.5597 23.3197 36.3104V36.3104C23.3197 46.061 31.2241 53.9655 40.9748 53.9655H58.6299V36.3104Z" fill="#BCE2F2"/>
<path d="M85.3968 41.3064V40.4424L83.9568 39.8664C82.8048 39.3864 82.5488 39.0344 82.5488 38.1704V21.0184H85.3648C86.8688 21.0184 87.4128 21.4984 88.5008 23.4184L89.5248 25.2744H90.3888L89.9408 19.3864H71.7648L71.3168 25.2744H72.1808L73.2048 23.4184C74.2928 21.4984 74.8368 21.0184 76.3408 21.0184H79.1888V38.1704C79.1888 39.0344 78.8688 39.3864 77.7488 39.8664L76.3088 40.4424V41.3064H85.3968ZM100.074 41.3064V40.4744L98.7935 39.9944C97.8975 39.6424 97.6735 39.2904 97.6735 38.2024V29.8504C98.7615 28.4104 100.394 27.5144 101.994 27.5144C104.33 27.5144 105.61 28.9864 105.61 31.7064V38.2024C105.61 39.2904 105.354 39.6424 104.49 39.9944L103.21 40.4744V41.3064H111.21V40.4744L109.93 39.9944C109.002 39.6104 108.746 39.2264 108.746 38.2024V31.0344C108.746 27.2584 106.666 24.9224 103.338 24.9224C101.29 24.9224 99.2095 26.0744 97.6735 28.0904V17.7544L96.9055 17.3064L92.1055 19.1624V19.9944L93.2895 20.2504C94.1855 20.4424 94.5375 20.9224 94.5375 22.2024V38.2024C94.5375 39.2264 94.2815 39.6104 93.3215 39.9944L92.0415 40.4744V41.3064H100.074ZM121.11 41.6264C123.67 41.6264 125.814 40.6984 127.478 39.0984L126.71 38.1064C125.43 39.0024 124.118 39.5464 122.358 39.5464C118.966 39.5464 116.854 37.3384 116.854 33.2424V32.8264H127.862V32.1224C127.734 27.4824 124.95 24.9224 120.95 24.9224C116.598 24.9224 113.462 28.6344 113.462 33.3384C113.462 38.7144 116.438 41.6264 121.11 41.6264ZM116.95 31.3544C117.366 28.2504 118.806 26.4264 121.014 26.4264C123.19 26.4264 124.566 28.3464 124.662 31.2584L116.95 31.3544ZM139.027 41.3064V40.4744L137.683 39.9944C136.243 39.4824 135.955 39.1624 135.955 38.2024V29.8824C136.883 28.3784 138.035 27.4824 139.123 27.4824C140.179 27.4824 140.787 27.9624 141.651 29.4344H142.515L142.867 25.9784C142.035 25.3064 141.011 24.9224 140.051 24.9224C138.355 24.9224 136.691 26.2984 135.667 28.4104V25.3704L134.931 24.9224L130.387 26.9064V27.6744L131.571 27.9304C132.467 28.1224 132.819 28.6664 132.819 29.9784V38.2024C132.819 39.2264 132.531 39.6104 131.603 39.9944L130.323 40.4744V41.3064H139.027ZM149.794 41.6264C151.522 41.6264 153.314 40.6984 154.434 39.2584L155.234 41.6264H155.938L160.098 39.9944L159.938 39.1624L158.786 39.0344C157.73 38.9064 157.442 38.5224 157.442 37.4024V30.8104C157.442 26.5864 155.65 24.9224 151.682 24.9224C149.506 24.9224 147.522 25.5624 145.346 27.0344L146.306 29.8824H147.458C148.098 28.0264 148.482 27.4184 149.026 27.0664C149.666 26.6504 150.466 26.4904 151.298 26.4904C153.282 26.4904 154.306 27.8024 154.306 30.7464V31.6744C152.258 31.7704 150.306 32.0584 148.802 32.5704C146.274 33.4344 144.834 35.0344 144.834 37.1784C144.834 39.8664 146.786 41.6264 149.794 41.6264ZM151.01 39.3864C149.25 39.3864 148.098 38.3304 148.098 36.6664C148.098 35.0664 149.058 33.9784 150.882 33.4664C151.778 33.2104 152.962 33.0504 154.306 32.9864V37.7864C153.346 38.8424 152.098 39.3864 151.01 39.3864ZM170.308 48.9864V48.1544L168.964 47.6744C167.524 47.1624 167.236 46.8424 167.236 45.8824V40.6984C168.228 41.3064 169.444 41.6264 170.66 41.6264C175.844 41.6264 179.076 38.2024 179.076 32.6344C179.076 28.1224 176.292 24.9224 172.388 24.9224C170.5 24.9224 168.548 25.9464 166.948 27.8344V25.3704L166.212 24.9224L161.668 26.8744V27.6744L162.852 27.9304C163.748 28.1224 164.1 28.6344 164.1 29.9784V45.8824C164.1 46.8744 163.78 47.3224 162.82 47.6744L161.54 48.1544V48.9864H170.308ZM170.852 40.1544C168.74 40.1544 167.332 38.8744 167.236 36.8904V29.2424C168.228 27.9944 169.636 27.2584 171.044 27.2584C173.892 27.2584 175.652 29.6584 175.652 33.5944C175.652 37.4664 173.7 40.1544 170.852 40.1544ZM185.507 22.2664C186.851 22.2664 187.811 21.2744 187.811 19.9304C187.811 18.5864 186.755 17.6264 185.507 17.6264C184.259 17.6264 183.203 18.5864 183.203 19.9304C183.203 21.2104 184.163 22.2664 185.507 22.2664ZM189.731 41.3064V40.4744L188.451 39.9944C187.523 39.6104 187.267 39.2584 187.267 38.2024V25.3704L186.499 24.9224L181.699 26.8104V27.6104L182.883 27.8664C183.779 28.0264 184.131 28.5064 184.131 29.8504V38.2024C184.131 39.2584 183.843 39.6104 182.915 39.9944L181.635 40.4744V41.3064H189.731ZM198.003 41.6264C201.715 41.6264 204.243 39.6744 204.243 36.7624C204.243 34.7784 202.963 33.2424 199.507 31.7704C196.339 30.3944 195.411 29.6584 195.411 28.4424C195.411 27.2584 196.531 26.4264 198.291 26.4264C199.379 26.4264 200.403 26.8744 201.075 27.6424C201.523 28.1544 201.875 28.6664 202.323 29.4984H203.187L203.539 26.0424C202.067 25.3704 200.051 24.9224 198.259 24.9224C194.835 24.9224 192.563 26.6504 192.563 29.2424C192.563 31.2584 193.971 32.7944 197.235 34.0744C200.499 35.3544 201.331 36.2824 201.331 37.5944C201.331 39.1624 200.051 40.1224 198.163 40.1224C196.403 40.1224 195.059 39.2584 194.227 37.7224L193.491 36.2184H192.627L192.243 39.9304C193.747 41.0184 195.955 41.6264 198.003 41.6264ZM212.657 41.6264C214.321 41.6264 216.113 40.9544 217.137 40.1544L216.817 39.0344C216.049 39.3544 215.121 39.6424 214.257 39.6424C212.529 39.6424 211.761 38.6504 211.761 35.8024V27.0024H216.689V25.2424H211.761V21.2424L210.961 20.7944L208.817 25.1464L206.161 25.6264V27.0024H208.625V36.2824C208.625 40.2504 209.841 41.6264 212.657 41.6264ZM232.567 41.3064V40.4424L231.703 40.1224C230.935 39.8344 230.679 39.5144 230.679 39.1944C230.679 38.9384 230.871 38.6184 231.223 38.1064L235.607 31.7704L239.895 38.2344C240.119 38.5864 240.279 38.9064 240.279 39.1304C240.279 39.4824 239.991 39.7384 239.287 40.0264L238.231 40.4424V41.3064H246.743V40.4424L245.591 39.9624C244.887 39.6744 244.663 39.5144 243.831 38.2664L237.975 29.4984L243.127 22.3624C243.799 21.4344 244.087 21.0504 244.951 20.7304L246.167 20.2504V19.3864H239.447V20.2504L240.343 20.5704C241.079 20.8584 241.367 21.1784 241.367 21.4984C241.367 21.7544 241.207 22.0424 240.823 22.5864L236.983 28.0264L233.271 22.4584C233.015 22.1064 232.887 21.7864 232.887 21.5624C232.887 21.2104 233.207 20.9544 233.879 20.6664L234.935 20.2504V19.3864H226.423V20.2504L227.575 20.7304C228.343 21.0824 228.503 21.2104 229.335 22.4264L234.615 30.2664L228.919 38.3304C228.247 39.2584 227.959 39.6424 227.095 39.9624L225.879 40.4424V41.3064H232.567Z" fill="#0A1316"/>
</svg>
