<svg width="246" height="63" viewBox="0 0 246 63" fill="none" xmlns="http://www.w3.org/2000/svg">
<path d="M4.52002 26.5044C4.52002 16.9001 12.3058 9.11426 21.9102 9.11426V9.11426C31.5145 9.11426 39.3003 16.9001 39.3003 26.5044V26.5044C39.3003 36.1087 31.5145 43.8945 21.9102 43.8945H4.52002V26.5044Z" fill="white"/>
<path d="M58.3467 36.3628C58.3467 26.7585 50.5608 18.9727 40.9565 18.9727V18.9727C31.3522 18.9727 23.5664 26.7585 23.5664 36.3628V36.3628C23.5664 45.9671 31.3522 53.7529 40.9565 53.7529H58.3467V36.3628Z" fill="#BCE2F2"/>
<path d="M83.7342 42.9932V42.1292L82.2942 41.5532C81.1422 41.0732 80.8862 40.7212 80.8862 39.8572V22.7052H83.7022C85.2062 22.7052 85.7502 23.1852 86.8382 25.1052L87.8622 26.9612H88.7262L88.2782 21.0732H70.1022L69.6542 26.9612H70.5182L71.5422 25.1052C72.6302 23.1852 73.1742 22.7052 74.6782 22.7052H77.5262V39.8572C77.5262 40.7212 77.2062 41.0732 76.0862 41.5532L74.6462 42.1292V42.9932H83.7342ZM98.4109 42.9932V42.1612L97.1309 41.6812C96.2349 41.3292 96.0109 40.9772 96.0109 39.8892V31.5372C97.0989 30.0972 98.7309 29.2012 100.331 29.2012C102.667 29.2012 103.947 30.6732 103.947 33.3932V39.8892C103.947 40.9772 103.691 41.3292 102.827 41.6812L101.547 42.1612V42.9932H109.547V42.1612L108.267 41.6812C107.339 41.2972 107.083 40.9132 107.083 39.8892V32.7212C107.083 28.9452 105.003 26.6092 101.675 26.6092C99.6269 26.6092 97.5469 27.7612 96.0109 29.7772V19.4412L95.2429 18.9932L90.4429 20.8492V21.6812L91.6269 21.9372C92.5229 22.1292 92.8749 22.6092 92.8749 23.8892V39.8892C92.8749 40.9132 92.6189 41.2972 91.6589 41.6812L90.3789 42.1612V42.9932H98.4109ZM119.447 43.3132C122.007 43.3132 124.151 42.3852 125.815 40.7852L125.047 39.7932C123.767 40.6892 122.455 41.2332 120.695 41.2332C117.303 41.2332 115.191 39.0252 115.191 34.9292V34.5132H126.199V33.8092C126.071 29.1692 123.287 26.6092 119.287 26.6092C114.935 26.6092 111.799 30.3212 111.799 35.0252C111.799 40.4012 114.775 43.3132 119.447 43.3132ZM115.287 33.0412C115.703 29.9372 117.143 28.1132 119.351 28.1132C121.527 28.1132 122.903 30.0332 122.999 32.9452L115.287 33.0412ZM137.364 42.9932V42.1612L136.02 41.6812C134.58 41.1692 134.292 40.8492 134.292 39.8892V31.5692C135.22 30.0652 136.372 29.1692 137.46 29.1692C138.516 29.1692 139.124 29.6492 139.988 31.1212H140.852L141.204 27.6652C140.372 26.9932 139.348 26.6092 138.388 26.6092C136.692 26.6092 135.028 27.9852 134.004 30.0972V27.0572L133.268 26.6092L128.724 28.5932V29.3612L129.908 29.6172C130.804 29.8092 131.156 30.3532 131.156 31.6652V39.8892C131.156 40.9132 130.868 41.2972 129.94 41.6812L128.66 42.1612V42.9932H137.364ZM148.131 43.3132C149.859 43.3132 151.651 42.3852 152.771 40.9452L153.571 43.3132H154.275L158.435 41.6812L158.275 40.8492L157.123 40.7212C156.067 40.5932 155.779 40.2092 155.779 39.0892V32.4972C155.779 28.2732 153.987 26.6092 150.019 26.6092C147.843 26.6092 145.859 27.2492 143.683 28.7212L144.643 31.5692H145.795C146.435 29.7132 146.819 29.1052 147.363 28.7532C148.003 28.3372 148.803 28.1772 149.635 28.1772C151.619 28.1772 152.643 29.4892 152.643 32.4332V33.3612C150.595 33.4572 148.643 33.7452 147.139 34.2572C144.611 35.1212 143.171 36.7212 143.171 38.8652C143.171 41.5532 145.123 43.3132 148.131 43.3132ZM149.347 41.0732C147.587 41.0732 146.435 40.0172 146.435 38.3532C146.435 36.7532 147.395 35.6652 149.219 35.1532C150.115 34.8972 151.299 34.7372 152.643 34.6732V39.4732C151.683 40.5292 150.435 41.0732 149.347 41.0732ZM168.645 50.6732V49.8412L167.301 49.3612C165.861 48.8492 165.573 48.5292 165.573 47.5692V42.3852C166.565 42.9932 167.781 43.3132 168.997 43.3132C174.181 43.3132 177.413 39.8892 177.413 34.3212C177.413 29.8092 174.629 26.6092 170.725 26.6092C168.837 26.6092 166.885 27.6332 165.285 29.5212V27.0572L164.549 26.6092L160.005 28.5612V29.3612L161.189 29.6172C162.085 29.8092 162.437 30.3212 162.437 31.6652V47.5692C162.437 48.5612 162.117 49.0092 161.157 49.3612L159.877 49.8412V50.6732H168.645ZM169.189 41.8412C167.077 41.8412 165.669 40.5612 165.573 38.5772V30.9292C166.565 29.6812 167.973 28.9452 169.381 28.9452C172.229 28.9452 173.989 31.3452 173.989 35.2812C173.989 39.1532 172.037 41.8412 169.189 41.8412ZM183.845 23.9532C185.189 23.9532 186.149 22.9612 186.149 21.6172C186.149 20.2732 185.093 19.3132 183.845 19.3132C182.597 19.3132 181.541 20.2732 181.541 21.6172C181.541 22.8972 182.501 23.9532 183.845 23.9532ZM188.069 42.9932V42.1612L186.789 41.6812C185.861 41.2972 185.605 40.9452 185.605 39.8892V27.0572L184.837 26.6092L180.037 28.4972V29.2972L181.221 29.5532C182.117 29.7132 182.469 30.1932 182.469 31.5372V39.8892C182.469 40.9452 182.181 41.2972 181.253 41.6812L179.973 42.1612V42.9932H188.069ZM196.34 43.3132C200.052 43.3132 202.58 41.3612 202.58 38.4492C202.58 36.4652 201.3 34.9292 197.844 33.4572C194.676 32.0812 193.748 31.3452 193.748 30.1292C193.748 28.9452 194.868 28.1132 196.628 28.1132C197.716 28.1132 198.74 28.5612 199.412 29.3292C199.86 29.8412 200.212 30.3532 200.66 31.1852H201.524L201.876 27.7292C200.404 27.0572 198.388 26.6092 196.596 26.6092C193.172 26.6092 190.9 28.3372 190.9 30.9292C190.9 32.9452 192.308 34.4812 195.572 35.7612C198.836 37.0412 199.668 37.9692 199.668 39.2812C199.668 40.8492 198.388 41.8092 196.5 41.8092C194.74 41.8092 193.396 40.9452 192.564 39.4092L191.828 37.9052H190.964L190.58 41.6172C192.084 42.7052 194.292 43.3132 196.34 43.3132ZM210.994 43.3132C212.658 43.3132 214.45 42.6412 215.474 41.8412L215.154 40.7212C214.386 41.0412 213.458 41.3292 212.594 41.3292C210.866 41.3292 210.098 40.3372 210.098 37.4892V28.6892H215.026V26.9292H210.098V22.9292L209.298 22.4812L207.154 26.8332L204.498 27.3132V28.6892H206.962V37.9692C206.962 41.9372 208.178 43.3132 210.994 43.3132ZM230.905 42.9932V42.1292L230.041 41.8092C229.273 41.5212 229.017 41.2012 229.017 40.8812C229.017 40.6252 229.209 40.3052 229.561 39.7932L233.945 33.4572L238.233 39.9212C238.457 40.2732 238.617 40.5932 238.617 40.8172C238.617 41.1692 238.329 41.4252 237.625 41.7132L236.569 42.1292V42.9932H245.081V42.1292L243.929 41.6492C243.225 41.3612 243.001 41.2012 242.169 39.9532L236.313 31.1852L241.465 24.0492C242.137 23.1212 242.425 22.7372 243.289 22.4172L244.505 21.9372V21.0732H237.785V21.9372L238.681 22.2572C239.417 22.5452 239.705 22.8652 239.705 23.1852C239.705 23.4412 239.545 23.7292 239.161 24.2732L235.321 29.7132L231.609 24.1452C231.353 23.7932 231.225 23.4732 231.225 23.2492C231.225 22.8972 231.545 22.6412 232.217 22.3532L233.273 21.9372V21.0732H224.761V21.9372L225.913 22.4172C226.681 22.7692 226.841 22.8972 227.673 24.1132L232.953 31.9532L227.257 40.0172C226.585 40.9452 226.297 41.3292 225.433 41.6492L224.217 42.1292V42.9932H230.905Z" fill="white"/>
</svg>
