<svg width="34" height="44" viewBox="0 0 34 44" fill="none" xmlns="http://www.w3.org/2000/svg">
<path d="M32.0273 8.39727C32.0273 10.2801 31.3132 12.1791 29.8686 13.6237L27.4664 16.0258L17.1273 26.365C17.0786 26.4137 17.0624 26.4299 17.0137 26.4624C16.965 26.4299 16.9487 26.4137 16.9001 26.365L4.15873 13.6237C2.71417 12.1791 2 10.2963 2 8.39727C2 6.49824 2.71417 4.59922 4.15873 3.15466C7.04784 0.281778 11.7224 0.281778 14.6115 3.15466L16.9974 5.55685L19.3996 3.15466C22.2887 0.281778 26.947 0.281778 29.8362 3.15466C31.3132 4.59922 32.0273 6.48201 32.0273 8.39727Z" stroke="#3B7385" stroke-width="2" stroke-linecap="round" stroke-linejoin="round"/>
</svg>
