<svg width="32" height="28" viewBox="0 0 32 28" fill="none" xmlns="http://www.w3.org/2000/svg">
<path d="M31 8.55346C31 10.476 30.2865 12.4151 28.8432 13.8902L26.4432 16.3431L16.1135 26.9005C16.0649 26.9503 16.0486 26.9669 16 27C15.9514 26.9669 15.9351 26.9503 15.8865 26.9005L3.15676 13.8902C1.71352 12.4151 1 10.4926 1 8.55346C1 6.61434 1.71352 4.67522 3.15676 3.20016C6.04325 0.266614 10.7135 0.266614 13.6 3.20016L15.9838 5.65306L18.3838 3.20016C21.2703 0.266614 25.9243 0.266614 28.8108 3.20016C30.2865 4.67522 31 6.59776 31 8.55346Z" stroke="#3B7385" stroke-width="2" stroke-linecap="round" stroke-linejoin="round"/>
</svg>
