<svg width="57" height="73" viewBox="0 0 57 73" fill="none" xmlns="http://www.w3.org/2000/svg">
<path d="M49.3999 28.3336H7.26665C4.35796 28.3336 2 30.6916 2 33.6003V65.2002C2 68.1089 4.35796 70.4668 7.26665 70.4668H49.3999C52.3086 70.4668 54.6665 68.1089 54.6665 65.2002V33.6003C54.6665 30.6916 52.3086 28.3336 49.3999 28.3336Z" stroke="white" stroke-width="4" stroke-linecap="round" stroke-linejoin="round"/>
<path d="M46.7689 28.3333V20.4333C46.7689 15.5445 44.8268 10.8559 41.3699 7.39898C37.913 3.94207 33.2244 2 28.3356 2C23.4468 2 18.7582 3.94207 15.3013 7.39898C11.8444 10.8559 9.90234 15.5445 9.90234 20.4333V28.3333" stroke="white" stroke-width="4" stroke-linecap="round" stroke-linejoin="round"/>
<path d="M28.3286 52.0334C29.783 52.0334 30.962 50.8544 30.962 49.4C30.962 47.9457 29.783 46.7667 28.3286 46.7667C26.8743 46.7667 25.6953 47.9457 25.6953 49.4C25.6953 50.8544 26.8743 52.0334 28.3286 52.0334Z" fill="white" stroke="white" stroke-width="3" stroke-linecap="round" stroke-linejoin="round"/>
</svg>
