<svg width="26" height="26" viewBox="0 0 26 26" fill="none" xmlns="http://www.w3.org/2000/svg">
<path d="M16.2348 24.06C17.3693 24.7931 18.7213 25.1126 20.0633 24.9647C21.4054 24.8168 22.6557 24.2107 23.604 23.2482L24.433 22.4363C24.7965 22.064 25 21.564 25 21.0432C25 20.5225 24.7965 20.0225 24.433 19.6502L20.9142 16.1629C20.5456 15.8 20.0494 15.5967 19.5325 15.5967C19.0156 15.5967 18.5194 15.8 18.1508 16.1629C17.779 16.5269 17.2798 16.7307 16.7598 16.7307C16.2399 16.7307 15.7407 16.5269 15.3689 16.1629L9.842 10.6275C9.65762 10.4455 9.51121 10.2286 9.41128 9.98945C9.31134 9.7503 9.25988 9.49363 9.25988 9.23437C9.25988 8.97512 9.31134 8.71845 9.41128 8.4793C9.51121 8.24014 9.65762 8.02327 9.842 7.8413C10.2043 7.47208 10.4073 6.97512 10.4073 6.45744C10.4073 5.93977 10.2043 5.44281 9.842 5.07359L6.34162 1.56783C5.96986 1.20382 5.4706 1 4.95069 1C4.43077 1 3.93151 1.20382 3.55975 1.56783L2.74913 2.39815C1.78809 3.34791 1.18287 4.60013 1.03525 5.94425C0.88762 7.28837 1.20659 8.64241 1.93852 9.77869C5.75217 15.4077 10.6046 20.2551 16.2348 24.06Z" stroke="#3B7385" stroke-width="2" stroke-linecap="round" stroke-linejoin="round"/>
</svg>
