<svg width="20" height="20" viewBox="0 0 20 20" fill="none" xmlns="http://www.w3.org/2000/svg">
<path d="M13.6081 3.64935C13.3053 3.64935 13.015 3.76962 12.8009 3.98371C12.5868 4.19779 12.4665 4.48815 12.4665 4.79092V17.4623C12.4665 17.5642 12.4392 17.6641 12.3875 17.7519C12.3358 17.8396 12.2616 17.9119 12.1725 17.9613C12.0835 18.0107 11.9828 18.0353 11.881 18.0327C11.7792 18.0301 11.68 18.0003 11.5936 17.9464L7.90026 15.6358L4.2069 17.9441C4.12067 17.9979 4.02164 18.0277 3.92004 18.0304C3.81844 18.0331 3.71796 18.0087 3.62897 17.9595C3.53999 17.9104 3.46573 17.8385 3.41387 17.7511C3.36201 17.6636 3.33443 17.564 3.33398 17.4623V4.79092C3.33398 3.88263 3.6948 3.01154 4.33706 2.36928C4.97931 1.72703 5.8504 1.36621 6.75869 1.36621H13.6081C14.5164 1.36621 15.3875 1.72703 16.0297 2.36928C16.672 3.01154 17.0328 3.88263 17.0328 4.79092V7.64484C17.0328 7.79622 16.9727 7.9414 16.8656 8.04844C16.7586 8.15549 16.6134 8.21562 16.462 8.21562H12.4665" stroke="#3B7385" stroke-width="1.5" stroke-linecap="round" stroke-linejoin="round"/>
</svg>
